<svg xmlns="http://www.w3.org/2000/svg" width="400" height="300" viewBox="0 0 400 300">
  <rect width="400" height="300" fill="#f9f7f2"/>
  <rect width="400" height="8" fill="#c4a03a"/>
  <rect y="8" width="400" height="52" fill="#f9f7f2" stroke="#c4a03a" stroke-width="0" opacity="0.95"/>
  <circle cx="30" cy="34" r="12" fill="#c4a03a"/>
  <rect x="50" y="28" width="80" height="12" rx="2" fill="#1a1410" opacity="0.8"/>
  <rect x="260" y="24" width="70" height="20" rx="10" fill="#c4a03a"/>
  <rect y="60" width="400" height="140" fill="url(#grad)"/>
  <defs>
    <linearGradient id="grad" x1="0" y1="0" x2="1" y2="1">
      <stop offset="0%" stop-color="#c4a03a"/>
      <stop offset="100%" stop-color="#5b4a8a"/>
    </linearGradient>
  </defs>
  <text x="200" y="120" text-anchor="middle" fill="white" font-size="20" font-weight="bold" font-family="system-ui">TerraForm Landscapes</text>
  <text x="200" y="145" text-anchor="middle" fill="white" font-size="11" opacity="0.8" font-family="system-ui">AI-Generated Theme</text>
  <rect x="155" y="158" width="90" height="26" rx="13" fill="white" opacity="0.9"/>
  <text x="200" y="175" text-anchor="middle" fill="#c4a03a" font-size="10" font-weight="600" font-family="system-ui">Get Started</text>
  <rect y="200" width="133" height="100" fill="#f9f7f2" stroke="#c4a03a" stroke-width="0"/>
  <rect x="133" y="200" width="134" height="100" fill="#f9f7f2"/>
  <rect x="267" y="200" width="133" height="100" fill="#f9f7f2"/>
  <rect x="20" y="215" width="93" height="8" rx="2" fill="#1a1410" opacity="0.15"/>
  <rect x="20" y="230" width="80" height="5" rx="1" fill="#1a1410" opacity="0.08"/>
  <rect x="20" y="240" width="90" height="5" rx="1" fill="#1a1410" opacity="0.08"/>
  <rect x="153" y="215" width="93" height="8" rx="2" fill="#1a1410" opacity="0.15"/>
  <rect x="153" y="230" width="80" height="5" rx="1" fill="#1a1410" opacity="0.08"/>
  <rect x="153" y="240" width="90" height="5" rx="1" fill="#1a1410" opacity="0.08"/>
  <rect x="287" y="215" width="93" height="8" rx="2" fill="#1a1410" opacity="0.15"/>
  <rect x="287" y="230" width="80" height="5" rx="1" fill="#1a1410" opacity="0.08"/>
  <rect x="287" y="240" width="90" height="5" rx="1" fill="#1a1410" opacity="0.08"/>
</svg>