<svg xmlns="http://www.w3.org/2000/svg" viewBox="0 0 120 40" width="120" height="40">
  <defs>
    <linearGradient id="logoGradient" x1="0%" y1="0%" x2="100%" y2="100%">
      <stop offset="0%" style="stop-color:#7c3aed"/>
      <stop offset="100%" style="stop-color:#06b6d4"/>
    </linearGradient>
  </defs>

  <!-- J Letter -->
  <path d="M8 8h8v18c0 4-2 6-6 6s-6-2-6-6h4c0 1.5 0.5 2 2 2s2-0.5 2-2V12H8V8z" fill="url(#logoGradient)"/>

  <!-- T Letter -->
  <path d="M24 8h16v4H36v20h-8V12h-4V8z" fill="url(#logoGradient)"/>

  <!-- B Letter -->
  <path d="M48 8h10c4 0 6 2 6 5 0 2-1 3.5-3 4 2.5 0.5 4 2.5 4 5 0 4-3 6-7 6H48V8zm8 7c1 0 2-0.5 2-1.5S57 12 56 12h-4v3h4zm1 11c1.5 0 2.5-0.5 2.5-2S58.5 22 57 22h-5v4h5z" fill="url(#logoGradient)"/>

  <!-- Theme text -->
  <text x="72" y="26" font-family="Inter, sans-serif" font-size="12" font-weight="600" fill="#64748b">Theme</text>
</svg>
